PathFileType	4	(X/Y/Z)	Patient4_TMGait_0pt5_01_left_35.trc.trc
DataRate	CameraRate	NumFrames	NumMarkers	Units	OrigDataRate	OrigDataStartFrame	OrigNumFrames
74.468085106383	74.468085106383	4	33	mm	74.468085106383	18	       141
Frame#	Time	L.ASIS			Sacral			L.Shoulder			Chest			R.Shoulder			Neck			R.ASIS			R.Thigh.Superior			R.Thigh.Lateral			R.Thigh.Inferior			R.Patella			L.Thigh.Superior			L.Thigh.Lateral			L.Thigh.Inferior			L.Patella			L.Shank.Superior			L.Shank.Lateral			L.Shank.Inferior			R.Shank.Superior			R.Shank.Lateral			R.Shank.Inferior			R.Heel			R.Midfoot.Superior			R.Midfoot.Lateral			R.Toe			L.Heel			L.Midfoot.Lateral			L.Midfoot.Superior			L.Toe			L.Elbow			L.Wrist			R.Elbow			R.Wrist			
		X1	Y1	Z1	X2	Y2	Z2	X3	Y3	Z3	X4	Y4	Z4	X5	Y5	Z5	X6	Y6	Z6	X7	Y7	Z7	X8	Y8	Z8	X9	Y9	Z9	X10	Y10	Z10	X11	Y11	Z11	X12	Y12	Z12	X13	Y13	Z13	X14	Y14	Z14	X15	Y15	Z15	X16	Y16	Z16	X17	Y17	Z17	X18	Y18	Z18	X19	Y19	Z19	X20	Y20	Z20	X21	Y21	Z21	X22	Y22	Z22	X23	Y23	Z23	X24	Y24	Z24	X25	Y25	Z25	X26	Y26	Z26	X27	Y27	Z27	X28	Y28	Z28	X29	Y29	Z29	X30	Y30	Z30	X31	Y31	Z31	X32	Y32	Z32	X33	Y33	Z33	

18	46.838285714286	775.284015601502	959.720788376026	378.065131711206	573.875261733678	1005.495315919768	551.364797239383	728.872758560264	1442.464721287701	377.917416858883	846.894604931348	1362.048930932567	522.794025706129	781.452605875184	1425.468165289630	708.621675632910	748.658795900369	1493.973797337899	531.217494714063	805.908394008604	941.590845172720	652.641888403653	811.110503085401	731.106714862516	626.446783165587	708.611753816332	633.535576688743	683.644266208704	774.424196707246	570.194259429475	606.085788703793	757.254505602600	483.723131344382	608.852702414348	849.164328439840	773.229396356450	402.930910257982	797.560746398315	645.766410075402	324.245065644615	902.021905454333	585.634054530613	382.108387468795	930.393715158536	524.059566069768	377.746162387388	918.714262320921	454.588556534073	366.440507384100	862.309219987062	320.840265088274	315.227857798907	959.048192914800	228.849536689503	365.860796985804	720.260847668670	399.451335666791	611.578267685776	635.459493326199	302.363925222939	666.310556320293	671.370922617152	205.380653683759	601.482168765120	523.278383567679	46.430622099521	561.080568142398	695.247755153219	95.610085225198	598.032956504590	605.873383465788	36.865357762719	635.997599316893	814.172915987796	40.503395404898	627.526199708739	888.982792979026	45.156725844911	405.546100228950	960.917700395558	52.509256496325	323.828976015336	1027.999416508776	133.450540889184	341.152700453481	1162.076325107063	110.456734450004	313.169193991929	583.757389507247	1124.496200314230	266.823395984918	572.789876010279	861.907532739982	291.898094471448	893.308352422668	1095.244511607536	798.377623157187	1137.745637382061	1103.708195907742	726.626756313250	
19	46.851714285714	776.152693546123	958.413771276992	376.887132645680	573.888346643786	1004.512457795024	549.260214884694	728.738005102717	1441.161332245656	375.715085207533	846.512233339783	1361.151227454856	520.975702044395	780.595076782593	1424.938411039188	706.508238673488	748.133756160427	1492.953615372643	528.957817100802	805.601508395443	940.610922035104	651.709884833692	809.650303612234	729.812530207450	625.550194833713	706.423128743647	632.824047360137	682.610412872746	771.818414415681	569.053527118626	605.058586974577	753.972048635196	482.498270281606	607.650726090865	850.385491171052	772.372337112408	402.686511215800	799.147581528730	644.519329815399	323.915813299399	903.265093658590	584.733601272812	382.160879970503	931.225496815562	522.311138543268	378.016250846350	918.789463975357	452.272268635099	366.908977808643	860.463005565406	319.391887638098	315.728856514609	955.297117564169	225.956427084933	366.944858368791	716.412282859289	398.483529184701	610.604048885902	630.986778592727	302.089360571824	665.756533124791	665.759674332161	204.780370599106	600.831408452860	516.511811859879	46.360301751620	560.988616764701	688.493525190018	95.514342706334	597.902007085695	599.079236904544	36.836481924600	635.926002402633	807.410480913143	40.334213573985	627.550419276259	881.635803528566	44.439068848783	406.579020863757	953.824859704947	50.156311518644	324.988285744132	1023.008089817940	128.996367054187	342.754184777186	1156.402129122458	102.402090370480	314.917496716600	582.194807937023	1123.810083415425	265.560422310307	569.586385442480	861.419095628859	292.286247420933	895.735654667876	1096.764032199219	797.329828664135	1138.968252001723	1112.316094716327	724.027939417433	
20	46.865142857143	777.223418087580	956.990163031188	375.628488693513	574.057151910319	1003.366410429860	546.951417556740	728.699430005067	1439.707122748009	373.315823534157	846.195682906758	1360.177941002235	519.026909942560	779.684751512814	1424.338060899689	704.230193822808	747.634917275610	1491.826947478362	526.484798440545	805.435717087697	939.468021347511	650.635843313334	808.386000177788	728.363992055399	624.463826632738	704.438975365878	631.969677175110	681.396302400033	769.380416376025	567.762258592288	603.816483518039	750.848202272086	481.118589884632	606.231435341496	851.750352432670	771.223438752479	402.427782285080	800.785061682215	643.137531566217	323.520150020826	904.419073087762	583.587459517356	382.317566819843	931.774737042690	520.150188949164	378.430243313446	918.474847851077	449.515684297624	367.448658807397	857.915941261308	317.681025730824	316.179595648936	950.487783932946	222.540925131905	368.131883440984	712.685905341021	397.368638321695	609.446331309937	626.640496880936	301.720511665088	665.079835850643	660.175928513626	204.082584498106	600.065972956690	509.733506607551	46.225843870347	560.875536782777	681.706697545608	95.405893910537	597.734452849495	592.269227125840	36.787621529950	635.835146705270	800.639732276888	40.171698351325	627.573329088830	872.690042236886	43.447348619679	407.450882365062	945.270147481719	47.505640031024	326.102385440506	1016.664182862970	123.992366352686	344.607050292696	1149.352934794537	93.522126916951	317.092636624820	581.069972708566	1122.837649118501	263.949490474299	567.311891040431	860.604066386520	292.006987345219	897.788589609473	1098.173439490177	796.478550127859	1139.764741663391	1120.066549015077	721.925986334101	
21	46.878571428571	778.458093210462	955.493717873463	374.285963809379	574.370673553333	1002.098589218545	544.448900210919	728.775801208384	1438.137815339973	370.735733089798	845.966851363895	1359.153370369184	516.958029698418	778.756450782196	1423.687976851160	701.804108987402	747.194085792363	1490.631327696881	523.812988837978	805.406960402510	938.191477995247	649.400018491269	807.343161091050	726.802277621025	623.163003722922	702.701626603043	631.002907941184	679.994651975445	767.160384672560	566.348707829863	602.360700171326	747.935893010545	479.606194002024	604.608473941191	853.212026465823	769.810420222261	402.092866027777	802.325091435666	641.641598546304	323.071195834631	905.402730881390	582.223009466863	382.537273867148	931.961624651586	517.664486935879	378.967755659165	917.758429678831	446.450947082818	368.024691823361	854.813323231673	315.774640209097	316.586156951056	944.905137897258	218.809343344698	369.378636186171	709.112881257392	396.132990956088	608.118053571649	622.435148696090	301.305457148171	664.284961188124	654.641413329883	203.327551581210	599.212421449930	502.955195806727	46.087750597447	560.754994596316	674.912688114880	95.300570491024	597.549331809977	585.455319264534	36.740498467423	635.726464088395	793.868911800960	40.002008371467	627.595630286358	862.696888184771	42.295837183675	408.186683507090	935.748520537312	44.769143910185	327.150896532468	1009.336809622691	118.762592892410	346.636651400197	1141.321403254250	84.351369382629	319.542572392321	580.472168561604	1121.562104004559	262.002528952907	565.990773810738	859.435414090469	291.033967786427	899.414774727143	1099.415498121488	795.791565052827	1140.169099966736	1126.883700645300	720.308970319835	
